<?xml version="1.0" encoding="UTF-8" standalone="no"?>
<svg
   xmlns:dc="http://purl.org/dc/elements/1.1/"
   xmlns:cc="http://creativecommons.org/ns#"
   xmlns:rdf="http://www.w3.org/1999/02/22-rdf-syntax-ns#"
   xmlns:svg="http://www.w3.org/2000/svg"
   xmlns="http://www.w3.org/2000/svg"
   xmlns:sodipodi="http://sodipodi.sourceforge.net/DTD/sodipodi-0.dtd"
   xmlns:inkscape="http://www.inkscape.org/namespaces/inkscape"
   viewBox="0 0 111.40626 158.50195"
   version="1.1"
   id="svg84"
   sodipodi:docname="servo.svg"
   width="111.40625"
   height="158.50195"
   inkscape:version="1.0.1 (c497b03c, 2020-09-10)">
  <metadata
     id="metadata90">
    <rdf:RDF>
      <cc:Work
         rdf:about="">
        <dc:format>image/svg+xml</dc:format>
        <dc:type
           rdf:resource="http://purl.org/dc/dcmitype/StillImage" />
        <dc:title></dc:title>
      </cc:Work>
    </rdf:RDF>
  </metadata>
  <defs
     id="defs88" />
  <sodipodi:namedview
     pagecolor="#ffffff"
     bordercolor="#666666"
     borderopacity="1"
     objecttolerance="10"
     gridtolerance="10"
     guidetolerance="10"
     inkscape:pageopacity="0"
     inkscape:pageshadow="2"
     inkscape:window-width="1536"
     inkscape:window-height="960"
     id="namedview86"
     showgrid="false"
     fit-margin-top="0"
     fit-margin-left="0"
     fit-margin-right="0"
     fit-margin-bottom="0"
     inkscape:zoom="3.0530426"
     inkscape:cx="113.94592"
     inkscape:cy="90.383741"
     inkscape:window-x="0"
     inkscape:window-y="0"
     inkscape:window-maximized="0"
     inkscape:current-layer="svg84" />
  <path
     id="path8212"
     fill="#303030"
     stroke-width="1.00704"
     d="M 10.687467,0 V 158.50196 H 100.43788 V 0 Z"
     style="stroke-linecap:round;stroke-linejoin:round" />
  <path
     id="crankbase"
     fill="#424242"
     stroke-width="5.28"
     d="m 55.641067,32.957023 c -24.9936,0 -45.256,20.2608 -45.256,45.2544 0.016,17.8816 9.4456,34.076797 25.7904,41.327997 0.024,2.6544 0.076,4.192 0.0704,6.3504 0,11.1576 9.0456,20.2032 20.2032,20.2032 11.1576,0 20.2032,-9.0456 20.2032,-20.2032 -0.0048,-2.3888 -0.332,-4.3536 -0.256,-6.9968 15.5896,-7.56 24.484813,-23.355997 24.500013,-40.681597 0,-24.992 -20.264013,-45.2544 -45.256013,-45.2544 z"
     style="stroke-linecap:round;stroke-linejoin:round" />
  <path
     id="arm"
     style="stroke-width:0.8;stroke-linecap:round;stroke-linejoin:round"
     d="m 55.623043,64.72006 c -3.809031,0.03201 -6.403487,0.189263 -7.023437,0.351563 v 0.002 c -3.5576,0.9296 -6.730469,6.621769 -6.730469,14.792969 0,8.1712 3.016869,14.649322 6.730469,14.794922 6.4192,0.2512 62.795444,4.049049 62.806644,-13.560547 0.008,-14.30845 -39.277406,-16.519566 -55.783207,-16.38086 z m 0.08008,8.050782 a 7.1775999,7.1775999 0 0 1 0.01172,0 7.1775999,7.1775999 0 0 1 7.175778,7.177734 7.1775999,7.1775999 0 0 1 -7.175781,7.177734 7.1775999,7.1775999 0 0 1 -7.177734,-7.177734 7.1775999,7.1775999 0 0 1 7.166015,-7.177734 z" />
  <path
     id="arm-5"
     style="opacity:0;stroke-width:0.8;stroke-linecap:round;stroke-linejoin:round"
     d="m 55.623043,64.72006 c -3.809031,0.03201 -6.403487,0.189263 -7.023437,0.351563 v 0.002 c -3.5576,0.9296 -6.730469,6.621769 -6.730469,14.792969 0,8.1712 3.016869,14.649322 6.730469,14.794922 6.4192,0.2512 62.795444,4.049049 62.806644,-13.560547 0.008,-14.30845 -39.277406,-16.519566 -55.783207,-16.38086 z m 0.08008,8.050782 a 7.1775999,7.1775999 0 0 1 0.01172,0 7.1775999,7.1775999 0 0 1 7.175778,7.177734 7.1775999,7.1775999 0 0 1 -7.175781,7.177734 7.1775999,7.1775999 0 0 1 -7.177734,-7.177734 7.1775999,7.1775999 0 0 1 7.166015,-7.177734 z" />
  <text
     xml:space="preserve"
     style="font-style:normal;font-weight:normal;font-size:24px;line-height:1.25;font-family:sans-serif;fill:#000000;fill-opacity:1;stroke:none"
     x="26.547047"
     y="26.683542"
     id="text975"><tspan
       sodipodi:role="line"
       id="tspan973"
       x="26.547047"
       y="26.683542"
       style="font-size:24px">180`</tspan></text>
</svg>
