<svg viewBox="0 0 24 24" xmlns="http://www.w3.org/2000/svg" fill-rule="evenodd" clip-rule="evenodd" stroke-linejoin="round" stroke-miterlimit="2"><path d="M16.175 18.15a.521.521 0 00-.521-.52h-1.042a.521.521 0 00-.521.52v2.25c0 .287.233.52.521.52h1.042a.521.521 0 00.52-.52v-2.25zM13.042 18.15a.521.521 0 00-.52-.52h-1.043a.521.521 0 00-.52.52v2.25c0 .287.233.52.52.52h1.042a.521.521 0 00.521-.52v-2.25zM9.91 18.15a.521.521 0 00-.522-.52H8.346a.521.521 0 00-.52.52v2.25c0 .287.233.52.52.52h1.042a.521.521 0 00.521-.52v-2.25zM5.867 16.19a.523.523 0 00.523-.523V14.62a.523.523 0 00-.523-.523H3.634a.523.523 0 00-.523.523v1.046c0 .288.234.522.523.522h2.233zM20.367 16.19a.523.523 0 00.522-.523V14.62a.523.523 0 00-.522-.523h-2.234a.523.523 0 00-.523.523v1.046c0 .288.235.522.523.522h2.234zM5.867 13.046a.523.523 0 00.523-.523v-1.046a.523.523 0 00-.523-.522H3.634a.523.523 0 00-.523.522v1.046c0 .289.234.523.523.523h2.233zM20.367 13.046a.523.523 0 00.522-.523v-1.046a.523.523 0 00-.522-.522h-2.234a.523.523 0 00-.523.522v1.046c0 .289.235.523.523.523h2.234zM5.867 9.902a.523.523 0 00.523-.523V8.334a.523.523 0 00-.523-.523H3.634a.523.523 0 00-.523.523v1.045c0 .289.234.523.523.523h2.233zM20.367 9.902a.523.523 0 00.522-.523V8.334a.523.523 0 00-.522-.523h-2.234a.523.523 0 00-.523.523v1.045c0 .289.235.523.523.523h2.234zM16.175 3.601a.521.521 0 00-.521-.52h-1.042a.521.521 0 00-.521.52V5.85c0 .287.233.52.521.52h1.042a.521.521 0 00.52-.52V3.6zM13.042 3.601a.521.521 0 00-.52-.52h-1.043a.521.521 0 00-.52.52V5.85c0 .287.233.52.52.52h1.042a.521.521 0 00.521-.52V3.6zM9.91 3.601a.521.521 0 00-.522-.52H8.346a.521.521 0 00-.52.52V5.85c0 .287.233.52.52.52h1.042a.521.521 0 00.521-.52V3.6z"/><path d="M18.143 6.729c0-.493-.4-.893-.892-.893H6.75c-.493 0-.893.4-.893.893V17.27c0 .493.4.893.893.893h10.5c.493 0 .893-.4.893-.893V6.73z"/></svg>