<svg viewBox="0 0 24 24" xmlns="http://www.w3.org/2000/svg" fill-rule="evenodd" clip-rule="evenodd" stroke-linejoin="round" stroke-miterlimit="2"><path d="M2.382 3.506a2.577 2.577 0 012.553-2.24h14.131c1.304 0 2.382.97 2.552 2.227v19.24H2.382V3.507zm11.104.842c0-.625-.508-1.132-1.133-1.132h-.705c-.625 0-1.132.507-1.132 1.132v13.773c0 .625.507 1.133 1.132 1.133h.705c.625 0 1.133-.508 1.133-1.133V4.348zm3.741 1.612c0-.625-.507-1.133-1.132-1.133h-.706c-.625 0-1.132.508-1.132 1.133V18.12c0 .625.507 1.133 1.132 1.133h.706c.625 0 1.132-.508 1.132-1.133V5.96zM9.611 4.348c0-.625-.508-1.132-1.132-1.132h-.706c-.625 0-1.132.507-1.132 1.132v13.773c0 .625.507 1.133 1.132 1.133h.706c.624 0 1.132-.508 1.132-1.133V4.348zM12 16.541a1.189 1.189 0 11-.002 2.377 1.189 1.189 0 01.002-2.377zm-3.875 0a1.189 1.189 0 11-.001 2.377 1.189 1.189 0 010-2.377zm7.616 0a1.189 1.189 0 11-.001 2.377 1.189 1.189 0 01.001-2.377zM5.641 9.486a1.156 1.156 0 00-2.312 0v2.608a1.156 1.156 0 002.312 0V9.486zm14.946 0a1.156 1.156 0 00-2.312 0v2.608a1.156 1.156 0 002.312 0V9.486z"/></svg>